<?xml version="1.0" encoding="UTF-8" standalone="no"?>
<!DOCTYPE svg PUBLIC "-//W3C//DTD SVG 1.1//EN"
 "http://www.w3.org/Graphics/SVG/1.1/DTD/svg11.dtd">
<!-- Generated by graphviz version 2.47.0 (20210316.0004)
 -->
<!-- Title: dependencies Pages: 1 -->
<svg width="504pt" height="211pt"
 viewBox="0.00 0.00 504.00 211.00" xmlns="http://www.w3.org/2000/svg" xmlns:xlink="http://www.w3.org/1999/xlink">
<g id="graph0" class="graph" transform="scale(1 1) rotate(0) translate(4 207)">
<title>dependencies</title>
<polygon fill="white" stroke="transparent" points="-4,4 -4,-207 500,-207 500,4 -4,4"/>
<text text-anchor="start" x="227.01" y="-42.4" font-family="Times-12" font-weight="bold" font-size="14.00">Legend</text>
<polygon fill="#ffffb3" stroke="transparent" points="14,-10 14,-30 34,-30 34,-10 14,-10"/>
<text text-anchor="start" x="37.63" y="-15.4" font-family="Times-12" font-size="14.00"> &#160;Declarations</text>
<polygon fill="#8dd3c7" stroke="transparent" points="127,-10 127,-30 147,-30 147,-10 127,-10"/>
<text text-anchor="start" x="150.73" y="-15.4" font-family="Times-12" font-size="14.00"> &#160;Module</text>
<polygon fill="#80b1d3" stroke="transparent" points="213,-10 213,-30 233,-30 233,-10 213,-10"/>
<text text-anchor="start" x="236.78" y="-15.4" font-family="Times-12" font-size="14.00"> &#160;Bootstrap</text>
<polygon fill="#fdb462" stroke="transparent" points="310,-10 310,-30 330,-30 330,-10 310,-10"/>
<text text-anchor="start" x="333.67" y="-15.4" font-family="Times-12" font-size="14.00"> &#160;Providers</text>
<polygon fill="#fb8072" stroke="transparent" points="406,-10 406,-30 426,-30 426,-10 406,-10"/>
<text text-anchor="start" x="429.73" y="-15.4" font-family="Times-12" font-size="14.00"> &#160;Exports</text>
<g id="clust1" class="cluster">
<title>cluster_MovementRequestModule</title>
<polygon fill="none" stroke="black" stroke-dasharray="1,5" points="43,-70 43,-195 453,-195 453,-70 43,-70"/>
</g>
<g id="clust6" class="cluster">
<title>cluster_MovementRequestModule_providers</title>
<polygon fill="none" stroke="black" points="51,-78 51,-130 445,-130 445,-78 51,-78"/>
</g>
<!-- MovementRequestService -->
<g id="node1" class="node">
<title>MovementRequestService</title>
<ellipse fill="#fdb462" stroke="black" cx="324" cy="-104" rx="112.88" ry="18"/>
<text text-anchor="middle" x="324" y="-99.8" font-family="Times,serif" font-size="14.00">MovementRequestService</text>
</g>
<!-- MovementRequestModule -->
<g id="node3" class="node">
<title>MovementRequestModule</title>
<polygon fill="#8dd3c7" stroke="black" points="311.81,-187 308.81,-191 287.81,-191 284.81,-187 146.19,-187 146.19,-151 311.81,-151 311.81,-187"/>
<text text-anchor="middle" x="229" y="-164.8" font-family="Times,serif" font-size="14.00">MovementRequestModule</text>
</g>
<!-- MovementRequestService&#45;&gt;MovementRequestModule -->
<g id="edge1" class="edge">
<title>MovementRequestService&#45;&gt;MovementRequestModule</title>
<path fill="none" stroke="black" d="M261.36,-119.08C261.36,-119.08 261.36,-140.76 261.36,-140.76"/>
<polygon fill="black" stroke="black" points="257.86,-140.76 261.36,-150.76 264.86,-140.76 257.86,-140.76"/>
</g>
<!-- PrismaService -->
<g id="node2" class="node">
<title>PrismaService</title>
<ellipse fill="#fdb462" stroke="black" cx="126" cy="-104" rx="66.63" ry="18"/>
<text text-anchor="middle" x="126" y="-99.8" font-family="Times,serif" font-size="14.00">PrismaService</text>
</g>
<!-- PrismaService&#45;&gt;MovementRequestModule -->
<g id="edge2" class="edge">
<title>PrismaService&#45;&gt;MovementRequestModule</title>
<path fill="none" stroke="black" d="M169.58,-117.78C169.58,-117.78 169.58,-140.55 169.58,-140.55"/>
<polygon fill="black" stroke="black" points="166.08,-140.55 169.58,-150.55 173.08,-140.55 166.08,-140.55"/>
</g>
</g>
</svg>
