<?xml version="1.0" encoding="UTF-8" standalone="no"?>
<!DOCTYPE svg PUBLIC "-//W3C//DTD SVG 1.1//EN"
 "http://www.w3.org/Graphics/SVG/1.1/DTD/svg11.dtd">
<!-- Generated by graphviz version 2.47.0 (20210316.0004)
 -->
<!-- Title: dependencies Pages: 1 -->
<svg width="504pt" height="211pt"
 viewBox="0.00 0.00 504.00 211.00" xmlns="http://www.w3.org/2000/svg" xmlns:xlink="http://www.w3.org/1999/xlink">
<g id="graph0" class="graph" transform="scale(1 1) rotate(0) translate(4 207)">
<title>dependencies</title>
<polygon fill="white" stroke="transparent" points="-4,4 -4,-207 500,-207 500,4 -4,4"/>
<text text-anchor="start" x="227.01" y="-42.4" font-family="Times-12" font-weight="bold" font-size="14.00">Legend</text>
<polygon fill="#ffffb3" stroke="transparent" points="14,-10 14,-30 34,-30 34,-10 14,-10"/>
<text text-anchor="start" x="37.63" y="-15.4" font-family="Times-12" font-size="14.00"> &#160;Declarations</text>
<polygon fill="#8dd3c7" stroke="transparent" points="127,-10 127,-30 147,-30 147,-10 127,-10"/>
<text text-anchor="start" x="150.73" y="-15.4" font-family="Times-12" font-size="14.00"> &#160;Module</text>
<polygon fill="#80b1d3" stroke="transparent" points="213,-10 213,-30 233,-30 233,-10 213,-10"/>
<text text-anchor="start" x="236.78" y="-15.4" font-family="Times-12" font-size="14.00"> &#160;Bootstrap</text>
<polygon fill="#fdb462" stroke="transparent" points="310,-10 310,-30 330,-30 330,-10 310,-10"/>
<text text-anchor="start" x="333.67" y="-15.4" font-family="Times-12" font-size="14.00"> &#160;Providers</text>
<polygon fill="#fb8072" stroke="transparent" points="406,-10 406,-30 426,-30 426,-10 406,-10"/>
<text text-anchor="start" x="429.73" y="-15.4" font-family="Times-12" font-size="14.00"> &#160;Exports</text>
<g id="clust1" class="cluster">
<title>cluster_RoomsModule</title>
<polygon fill="none" stroke="black" stroke-dasharray="1,5" points="89,-70 89,-195 407,-195 407,-70 89,-70"/>
</g>
<g id="clust6" class="cluster">
<title>cluster_RoomsModule_providers</title>
<polygon fill="none" stroke="black" points="97,-78 97,-130 399,-130 399,-78 97,-78"/>
</g>
<!-- PrismaService -->
<g id="node1" class="node">
<title>PrismaService</title>
<ellipse fill="#fdb462" stroke="black" cx="324" cy="-104" rx="66.63" ry="18"/>
<text text-anchor="middle" x="324" y="-99.8" font-family="Times,serif" font-size="14.00">PrismaService</text>
</g>
<!-- RoomsModule -->
<g id="node3" class="node">
<title>RoomsModule</title>
<polygon fill="#8dd3c7" stroke="black" points="297.72,-187 294.72,-191 273.72,-191 270.72,-187 198.28,-187 198.28,-151 297.72,-151 297.72,-187"/>
<text text-anchor="middle" x="248" y="-164.8" font-family="Times,serif" font-size="14.00">RoomsModule</text>
</g>
<!-- PrismaService&#45;&gt;RoomsModule -->
<g id="edge1" class="edge">
<title>PrismaService&#45;&gt;RoomsModule</title>
<path fill="none" stroke="black" d="M277.4,-117.15C277.4,-117.15 277.4,-140.69 277.4,-140.69"/>
<polygon fill="black" stroke="black" points="273.9,-140.69 277.4,-150.69 280.9,-140.69 273.9,-140.69"/>
</g>
<!-- RoomsService -->
<g id="node2" class="node">
<title>RoomsService</title>
<ellipse fill="#fdb462" stroke="black" cx="172" cy="-104" rx="67.21" ry="18"/>
<text text-anchor="middle" x="172" y="-99.8" font-family="Times,serif" font-size="14.00">RoomsService</text>
</g>
<!-- RoomsService&#45;&gt;RoomsModule -->
<g id="edge2" class="edge">
<title>RoomsService&#45;&gt;RoomsModule</title>
<path fill="none" stroke="black" d="M218.87,-117.15C218.87,-117.15 218.87,-140.69 218.87,-140.69"/>
<polygon fill="black" stroke="black" points="215.37,-140.69 218.87,-150.69 222.37,-140.69 215.37,-140.69"/>
</g>
</g>
</svg>
