<?xml version="1.0" encoding="UTF-8" standalone="no"?>
<!DOCTYPE svg PUBLIC "-//W3C//DTD SVG 1.1//EN"
 "http://www.w3.org/Graphics/SVG/1.1/DTD/svg11.dtd">
<!-- Generated by graphviz version 2.47.0 (20210316.0004)
 -->
<!-- Title: dependencies Pages: 1 -->
<svg width="951pt" height="211pt"
 viewBox="0.00 0.00 951.00 211.00" xmlns="http://www.w3.org/2000/svg" xmlns:xlink="http://www.w3.org/1999/xlink">
<g id="graph0" class="graph" transform="scale(1 1) rotate(0) translate(4 207)">
<title>dependencies</title>
<polygon fill="white" stroke="transparent" points="-4,4 -4,-207 947,-207 947,4 -4,4"/>
<text text-anchor="start" x="450.51" y="-42.4" font-family="Times-12" font-weight="bold" font-size="14.00">Legend</text>
<polygon fill="#ffffb3" stroke="transparent" points="237.5,-10 237.5,-30 257.5,-30 257.5,-10 237.5,-10"/>
<text text-anchor="start" x="261.13" y="-15.4" font-family="Times-12" font-size="14.00"> &#160;Declarations</text>
<polygon fill="#8dd3c7" stroke="transparent" points="350.5,-10 350.5,-30 370.5,-30 370.5,-10 350.5,-10"/>
<text text-anchor="start" x="374.23" y="-15.4" font-family="Times-12" font-size="14.00"> &#160;Module</text>
<polygon fill="#80b1d3" stroke="transparent" points="436.5,-10 436.5,-30 456.5,-30 456.5,-10 436.5,-10"/>
<text text-anchor="start" x="460.28" y="-15.4" font-family="Times-12" font-size="14.00"> &#160;Bootstrap</text>
<polygon fill="#fdb462" stroke="transparent" points="533.5,-10 533.5,-30 553.5,-30 553.5,-10 533.5,-10"/>
<text text-anchor="start" x="557.17" y="-15.4" font-family="Times-12" font-size="14.00"> &#160;Providers</text>
<polygon fill="#fb8072" stroke="transparent" points="629.5,-10 629.5,-30 649.5,-30 649.5,-10 629.5,-10"/>
<text text-anchor="start" x="653.23" y="-15.4" font-family="Times-12" font-size="14.00"> &#160;Exports</text>
<g id="clust1" class="cluster">
<title>cluster_AppModule</title>
<polygon fill="none" stroke="black" stroke-dasharray="1,5" points="8,-70 8,-195 935,-195 935,-70 8,-70"/>
</g>
<g id="clust6" class="cluster">
<title>cluster_AppModule_providers</title>
<polygon fill="none" stroke="black" points="646,-78 646,-130 927,-130 927,-78 646,-78"/>
</g>
<g id="clust3" class="cluster">
<title>cluster_AppModule_imports</title>
<polygon fill="none" stroke="black" points="16,-78 16,-130 638,-130 638,-78 16,-78"/>
</g>
<!-- AuthModule -->
<g id="node1" class="node">
<title>AuthModule</title>
<polygon fill="#8dd3c7" stroke="black" points="629.55,-122 626.55,-126 605.55,-126 602.55,-122 542.45,-122 542.45,-86 629.55,-86 629.55,-122"/>
<text text-anchor="middle" x="586" y="-99.8" font-family="Times,serif" font-size="14.00">AuthModule</text>
</g>
<!-- AppModule -->
<g id="node6" class="node">
<title>AppModule</title>
<polygon fill="#8dd3c7" stroke="black" points="520.66,-187 517.66,-191 496.66,-191 493.66,-187 437.34,-187 437.34,-151 520.66,-151 520.66,-187"/>
<text text-anchor="middle" x="479" y="-164.8" font-family="Times,serif" font-size="14.00">AppModule</text>
</g>
<!-- AuthModule&#45;&gt;AppModule -->
<g id="edge1" class="edge">
<title>AuthModule&#45;&gt;AppModule</title>
<path fill="none" stroke="black" d="M586,-122.03C586,-138.4 586,-160 586,-160 586,-160 530.68,-160 530.68,-160"/>
<polygon fill="black" stroke="black" points="530.68,-156.5 520.68,-160 530.68,-163.5 530.68,-156.5"/>
</g>
<!-- ItemsModule -->
<g id="node2" class="node">
<title>ItemsModule</title>
<polygon fill="#8dd3c7" stroke="black" points="524.15,-122 521.15,-126 500.15,-126 497.15,-122 433.85,-122 433.85,-86 524.15,-86 524.15,-122"/>
<text text-anchor="middle" x="479" y="-99.8" font-family="Times,serif" font-size="14.00">ItemsModule</text>
</g>
<!-- ItemsModule&#45;&gt;AppModule -->
<g id="edge2" class="edge">
<title>ItemsModule&#45;&gt;AppModule</title>
<path fill="none" stroke="black" d="M479,-122.11C479,-122.11 479,-140.99 479,-140.99"/>
<polygon fill="black" stroke="black" points="475.5,-140.99 479,-150.99 482.5,-140.99 475.5,-140.99"/>
</g>
<!-- MovementRequestModule -->
<g id="node3" class="node">
<title>MovementRequestModule</title>
<polygon fill="#8dd3c7" stroke="black" points="415.81,-122 412.81,-126 391.81,-126 388.81,-122 250.19,-122 250.19,-86 415.81,-86 415.81,-122"/>
<text text-anchor="middle" x="333" y="-99.8" font-family="Times,serif" font-size="14.00">MovementRequestModule</text>
</g>
<!-- MovementRequestModule&#45;&gt;AppModule -->
<g id="edge3" class="edge">
<title>MovementRequestModule&#45;&gt;AppModule</title>
<path fill="none" stroke="black" d="M333,-122.03C333,-138.4 333,-160 333,-160 333,-160 427.16,-160 427.16,-160"/>
<polygon fill="black" stroke="black" points="427.16,-163.5 437.16,-160 427.16,-156.5 427.16,-163.5"/>
</g>
<!-- RoomsModule -->
<g id="node4" class="node">
<title>RoomsModule</title>
<polygon fill="#8dd3c7" stroke="black" points="232.72,-122 229.72,-126 208.72,-126 205.72,-122 133.28,-122 133.28,-86 232.72,-86 232.72,-122"/>
<text text-anchor="middle" x="183" y="-99.8" font-family="Times,serif" font-size="14.00">RoomsModule</text>
</g>
<!-- RoomsModule&#45;&gt;AppModule -->
<g id="edge4" class="edge">
<title>RoomsModule&#45;&gt;AppModule</title>
<path fill="none" stroke="black" d="M183,-122.11C183,-141.34 183,-169 183,-169 183,-169 427.22,-169 427.22,-169"/>
<polygon fill="black" stroke="black" points="427.22,-172.5 437.22,-169 427.22,-165.5 427.22,-172.5"/>
</g>
<!-- UsersModule -->
<g id="node5" class="node">
<title>UsersModule</title>
<polygon fill="#8dd3c7" stroke="black" points="115.92,-122 112.92,-126 91.92,-126 88.92,-122 24.08,-122 24.08,-86 115.92,-86 115.92,-122"/>
<text text-anchor="middle" x="70" y="-99.8" font-family="Times,serif" font-size="14.00">UsersModule</text>
</g>
<!-- UsersModule&#45;&gt;AppModule -->
<g id="edge5" class="edge">
<title>UsersModule&#45;&gt;AppModule</title>
<path fill="none" stroke="black" d="M70,-122.29C70,-144.21 70,-178 70,-178 70,-178 427.15,-178 427.15,-178"/>
<polygon fill="black" stroke="black" points="427.15,-181.5 437.15,-178 427.15,-174.5 427.15,-181.5"/>
</g>
<!-- AppService -->
<g id="node7" class="node">
<title>AppService</title>
<ellipse fill="#fdb462" stroke="black" cx="862" cy="-104" rx="56.74" ry="18"/>
<text text-anchor="middle" x="862" y="-99.8" font-family="Times,serif" font-size="14.00">AppService</text>
</g>
<!-- AppService&#45;&gt;AppModule -->
<g id="edge6" class="edge">
<title>AppService&#45;&gt;AppModule</title>
<path fill="none" stroke="black" d="M862,-122.29C862,-144.21 862,-178 862,-178 862,-178 530.72,-178 530.72,-178"/>
<polygon fill="black" stroke="black" points="530.72,-174.5 520.72,-178 530.72,-181.5 530.72,-174.5"/>
</g>
<!-- PrismaService -->
<g id="node8" class="node">
<title>PrismaService</title>
<ellipse fill="#fdb462" stroke="black" cx="721" cy="-104" rx="66.63" ry="18"/>
<text text-anchor="middle" x="721" y="-99.8" font-family="Times,serif" font-size="14.00">PrismaService</text>
</g>
<!-- PrismaService&#45;&gt;AppModule -->
<g id="edge7" class="edge">
<title>PrismaService&#45;&gt;AppModule</title>
<path fill="none" stroke="black" d="M721,-122.11C721,-141.34 721,-169 721,-169 721,-169 530.88,-169 530.88,-169"/>
<polygon fill="black" stroke="black" points="530.88,-165.5 520.88,-169 530.88,-172.5 530.88,-165.5"/>
</g>
</g>
</svg>
